<?xml version="1.0" encoding="UTF-8" standalone="no"?><!DOCTYPE svg PUBLIC "-//W3C//DTD SVG 1.1//EN" "http://www.w3.org/Graphics/SVG/1.1/DTD/svg11.dtd"><svg width="100%" height="100%" viewBox="0 0 67 64" version="1.1" xmlns="http://www.w3.org/2000/svg" xmlns:xlink="http://www.w3.org/1999/xlink" xml:space="preserve" xmlns:serif="http://www.serif.com/" style="fill-rule:evenodd;clip-rule:evenodd;stroke-linejoin:round;stroke-miterlimit:2;"><g><path d="M16.725,10.571l-16.486,-0l0,-2.879l20.996,0c-1.601,0.812 -3.111,1.778 -4.51,2.879Z" style="fill:#fefbc2;"/><path d="M45.704,7.692l20.996,0l0,2.879l-16.486,0c-1.399,-1.101 -2.909,-2.067 -4.51,-2.879Z" style="fill:#fefbc2;"/><path d="M54.891,15.278l11.809,0l0,2.879l-9.854,-0c-0.591,-1.003 -1.244,-1.964 -1.954,-2.879Z" style="fill:#fefbc2;"/><path d="M59.039,22.864l7.66,0l0,2.879l-6.821,-0c-0.228,-0.981 -0.509,-1.942 -0.84,-2.879Z" style="fill:#fefbc2;"/><path d="M60.543,30.449l6.157,0l0,2.879l-6.157,-0c0.025,-0.477 0.038,-0.957 0.038,-1.439c0,-0.483 -0.013,-0.963 -0.038,-1.439Z" style="fill:#fefbc2;"/><path d="M59.879,38.035l6.821,0l0,2.879l-7.66,0c0.331,-0.937 0.612,-1.898 0.84,-2.879Z" style="fill:#fefbc2;"/><path d="M56.846,45.62l9.854,0l0,2.879l-11.809,-0c0.711,-0.915 1.364,-1.876 1.954,-2.879Z" style="fill:#fefbc2;"/><path d="M50.213,53.206l16.486,0l0,2.879l-20.996,0c1.601,-0.812 3.111,-1.778 4.51,-2.879Z" style="fill:#fefbc2;"/><path d="M21.234,56.085l-20.996,0l0,-2.879l16.486,0c1.399,1.101 2.909,2.067 4.51,2.879Z" style="fill:#fefbc2;"/><path d="M41.186,48.499l-40.948,-0l0,-2.879l44.288,0c-0.817,0.879 -2.23,2.15 -3.341,2.879Z" style="fill:#fefbc2;"/><path d="M47.579,40.913l-47.34,-0l0,-2.879l48.596,0c-0.341,0.931 -0.737,2.004 -1.256,2.879Z" style="fill:#fefbc2;"/><path d="M6.396,33.328l-6.157,-0l0,-2.879l6.157,0c-0.025,0.477 -0.038,0.957 -0.038,1.439c0,0.483 0.013,0.963 0.038,1.439Z" style="fill:#fefbc2;"/><path d="M7.059,25.742l-6.821,0l0,-2.879l7.66,0c-0.331,0.937 -0.612,1.898 -0.84,2.879Z" style="fill:#fefbc2;"/><path d="M10.093,18.157l-9.854,0l0,-2.879l11.809,0c-0.711,0.915 -1.364,1.876 -1.954,2.879Z" style="fill:#fefbc2;"/><rect x="0.238" y="0.087" width="66.462" height="2.898" style="fill:#fefbc2;"/><rect x="0.238" y="60.791" width="66.462" height="2.879" style="fill:#fefbc2;"/></g></svg>