<?xml version="1.0" encoding="UTF-8" standalone="no"?><!DOCTYPE svg PUBLIC "-//W3C//DTD SVG 1.1//EN" "http://www.w3.org/Graphics/SVG/1.1/DTD/svg11.dtd"><svg width="100%" height="100%" viewBox="0 0 548 64" version="1.1" xmlns="http://www.w3.org/2000/svg" xmlns:xlink="http://www.w3.org/1999/xlink" xml:space="preserve" xmlns:serif="http://www.serif.com/" style="fill-rule:evenodd;clip-rule:evenodd;stroke-linejoin:round;stroke-miterlimit:2;"><g><g><path d="M16.725,10.571l-16.486,-0l0,-2.879l20.996,0c-1.601,0.812 -3.111,1.778 -4.51,2.879Z" style="fill:#fefbc2;"/><path d="M45.704,7.692l20.996,0l0,2.879l-16.486,0c-1.399,-1.101 -2.909,-2.067 -4.51,-2.879Z" style="fill:#fefbc2;"/><path d="M54.891,15.278l11.809,0l0,2.879l-9.854,-0c-0.591,-1.003 -1.244,-1.964 -1.954,-2.879Z" style="fill:#fefbc2;"/><path d="M59.039,22.864l7.66,0l0,2.879l-6.821,-0c-0.228,-0.981 -0.509,-1.942 -0.84,-2.879Z" style="fill:#fefbc2;"/><path d="M60.543,30.449l6.157,0l0,2.879l-6.157,-0c0.025,-0.477 0.038,-0.957 0.038,-1.439c0,-0.483 -0.013,-0.963 -0.038,-1.439Z" style="fill:#fefbc2;"/><path d="M59.879,38.035l6.821,0l0,2.879l-7.66,0c0.331,-0.937 0.612,-1.898 0.84,-2.879Z" style="fill:#fefbc2;"/><path d="M56.846,45.62l9.854,0l0,2.879l-11.809,-0c0.711,-0.915 1.364,-1.876 1.954,-2.879Z" style="fill:#fefbc2;"/><path d="M50.213,53.206l16.486,0l0,2.879l-20.996,0c1.601,-0.812 3.111,-1.778 4.51,-2.879Z" style="fill:#fefbc2;"/><path d="M21.234,56.085l-20.996,0l0,-2.879l16.486,0c1.399,1.101 2.909,2.067 4.51,2.879Z" style="fill:#fefbc2;"/><path d="M41.186,48.499l-40.948,-0l0,-2.879l44.288,0c-0.817,0.879 -2.23,2.15 -3.341,2.879Z" style="fill:#fefbc2;"/><path d="M47.579,40.913l-47.34,-0l0,-2.879l48.596,0c-0.341,0.931 -0.737,2.004 -1.256,2.879Z" style="fill:#fefbc2;"/><path d="M6.396,33.328l-6.157,-0l0,-2.879l6.157,0c-0.025,0.477 -0.038,0.957 -0.038,1.439c0,0.483 0.013,0.963 0.038,1.439Z" style="fill:#fefbc2;"/><path d="M7.059,25.742l-6.821,0l0,-2.879l7.66,0c-0.331,0.937 -0.612,1.898 -0.84,2.879Z" style="fill:#fefbc2;"/><path d="M10.093,18.157l-9.854,0l0,-2.879l11.809,0c-0.711,0.915 -1.364,1.876 -1.954,2.879Z" style="fill:#fefbc2;"/><rect x="0.238" y="0.087" width="66.462" height="2.898" style="fill:#fefbc2;"/><rect x="0.238" y="60.791" width="66.462" height="2.879" style="fill:#fefbc2;"/></g><path d="M92.129,49.687l1.008,0c0.576,0 0.96,-0.336 0.96,-1.056l0,-27.312l12.432,14.448c0.72,0.816 1.44,0.816 2.16,0l12.432,-14.448l0,27.312c0,0.72 0.336,1.056 0.912,1.056l1.056,0c0.576,0 0.96,-0.336 0.96,-1.056l0,-31.584c0,-0.624 -0.432,-1.008 -0.96,-1.008l-0.768,0c-0.432,0 -0.672,0.144 -0.96,0.48l-13.68,16.224l-13.824,-16.224c-0.288,-0.288 -0.528,-0.48 -0.96,-0.48l-0.768,0c-0.528,0 -0.96,0.384 -0.96,1.008l0,31.584c0,0.72 0.336,1.056 0.96,1.056Z" style="fill:#fefbc2;fill-rule:nonzero;"/><path d="M143.729,50.167c4.464,0 7.968,-1.632 10.368,-4.608c0.384,-0.432 0.336,-1.008 -0.096,-1.344l-0.72,-0.528c-0.432,-0.336 -0.912,-0.24 -1.344,0.144c-1.872,2.352 -4.464,3.744 -8.064,3.744c-5.712,0 -9.456,-3.408 -9.792,-8.976l20.304,0c0.48,0 0.816,-0.336 0.816,-0.816l0,-0.384c0,-6.864 -4.32,-12.288 -11.712,-12.288c-7.344,0 -12.336,5.28 -12.336,12.816c0,7.248 4.656,12.24 12.576,12.24Zm-9.6,-13.728c0.528,-5.136 4.032,-8.784 9.456,-8.784c5.376,0 8.4,3.6 8.688,8.784l-18.144,0Z" style="fill:#fefbc2;fill-rule:nonzero;"/><path d="M172.577,50.119c4.56,0 8.208,-2.16 10.224,-5.568l-0.048,2.64l0,1.488c0,0.576 0.384,1.008 0.96,1.008l1.008,0c0.576,0 0.912,-0.432 0.912,-1.008l0,-34.08c0,-0.624 -0.336,-1.008 -0.912,-1.008l-1.056,0c-0.576,0 -0.912,0.384 -0.912,1.008l0,16.08c-2.016,-3.408 -5.664,-5.52 -10.176,-5.52c-7.008,0 -12.24,5.04 -12.24,12.48c0,7.44 5.232,12.48 12.24,12.48Zm-9.312,-12.48c0,-5.712 4.032,-9.888 9.84,-9.888c5.712,0 9.744,4.176 9.744,9.888c0,5.712 -4.032,9.84 -9.744,9.84c-5.808,0 -9.84,-4.176 -9.84,-9.84Z" style="fill:#fefbc2;fill-rule:nonzero;"/><path d="M195.761,19.351c1.104,0 1.92,-0.816 1.92,-1.872c0,-1.056 -0.816,-1.824 -1.92,-1.824c-1.104,0 -1.872,0.768 -1.872,1.824c0,1.056 0.768,1.872 1.872,1.872Zm-1.488,29.28c0,0.72 0.384,1.056 0.96,1.056l1.056,0c0.624,0 0.96,-0.336 0.96,-1.056l0,-22.032c0,-0.672 -0.336,-1.056 -0.96,-1.056l-1.056,0c-0.576,0 -0.96,0.384 -0.96,1.056l0,22.032Z" style="fill:#fefbc2;fill-rule:nonzero;"/><path d="M216.353,50.167c4.992,0 8.736,-2.448 10.896,-6.144c0.288,-0.48 0.144,-0.96 -0.384,-1.248l-0.864,-0.48c-0.528,-0.288 -0.96,-0.048 -1.296,0.432c-1.728,2.784 -4.512,4.752 -8.352,4.752c-5.664,0 -9.6,-4.176 -9.6,-9.84c0,-5.664 3.936,-9.888 9.6,-9.888c3.744,0 6.48,1.872 8.208,4.608c0.384,0.48 0.864,0.672 1.392,0.336l0.816,-0.48c0.48,-0.24 0.672,-0.816 0.288,-1.344c-2.208,-3.456 -5.904,-5.76 -10.704,-5.76c-7.344,0 -12.528,5.28 -12.528,12.528c0,7.2 5.184,12.528 12.528,12.528Z" style="fill:#fefbc2;fill-rule:nonzero;"/><path d="M244.481,50.119c4.608,0 8.256,-2.16 10.224,-5.568l-0.048,2.64l0,1.488c0,0.672 0.384,1.008 0.96,1.008l1.008,0c0.576,0 0.912,-0.336 0.912,-1.008l0,-22.128c0,-0.624 -0.336,-1.008 -0.912,-1.008l-1.056,0c-0.576,0 -0.912,0.384 -0.912,1.008l0,4.128c-1.968,-3.408 -5.616,-5.52 -10.176,-5.52c-7.008,0 -12.24,5.04 -12.24,12.48c0,7.44 5.232,12.48 12.24,12.48Zm-9.312,-12.48c0,-5.712 4.032,-9.888 9.84,-9.888c5.712,0 9.744,4.176 9.744,9.888c0,5.712 -4.032,9.84 -9.744,9.84c-5.808,0 -9.84,-4.176 -9.84,-9.84Z" style="fill:#fefbc2;fill-rule:nonzero;"/><path d="M273.041,49.879c1.392,0 2.496,-0.144 3.408,-0.288c0.528,-0.048 0.768,-0.384 0.768,-0.912l0,-0.816c0,-0.528 -0.384,-0.816 -1.008,-0.768c-0.816,0.144 -1.776,0.24 -2.736,0.24c-2.544,0 -4.176,-1.296 -4.176,-4.8l0,-14.448l6.96,0c0.624,0 0.96,-0.336 0.96,-0.816l0,-0.864c0,-0.48 -0.336,-0.768 -0.96,-0.768l-6.96,0l0,-6.72c0,-0.672 -0.384,-1.056 -0.96,-1.056l-1.056,0c-0.576,0 -0.912,0.384 -0.912,1.056l0,6.72l-3.12,0c-0.576,0 -0.912,0.288 -0.912,0.816l0,0.816c0,0.48 0.336,0.816 0.912,0.816l3.12,0l0,14.64c0,4.8 2.112,7.152 6.672,7.152Z" style="fill:#fefbc2;fill-rule:nonzero;"/><path d="M292.769,50.167c4.464,0 7.968,-1.632 10.368,-4.608c0.384,-0.432 0.336,-1.008 -0.096,-1.344l-0.72,-0.528c-0.432,-0.336 -0.912,-0.24 -1.344,0.144c-1.872,2.352 -4.464,3.744 -8.064,3.744c-5.712,0 -9.456,-3.408 -9.792,-8.976l20.304,0c0.48,0 0.816,-0.336 0.816,-0.816l0,-0.384c0,-6.864 -4.32,-12.288 -11.712,-12.288c-7.344,0 -12.336,5.28 -12.336,12.816c0,7.248 4.656,12.24 12.576,12.24Zm-9.6,-13.728c0.528,-5.136 4.032,-8.784 9.456,-8.784c5.376,0 8.4,3.6 8.688,8.784l-18.144,0Z" style="fill:#fefbc2;fill-rule:nonzero;"/><path d="M321.617,50.119c4.56,0 8.208,-2.16 10.224,-5.568l-0.048,2.64l0,1.488c0,0.576 0.384,1.008 0.96,1.008l1.008,0c0.576,0 0.912,-0.432 0.912,-1.008l0,-34.08c0,-0.624 -0.336,-1.008 -0.912,-1.008l-1.056,0c-0.576,0 -0.912,0.384 -0.912,1.008l0,16.08c-2.016,-3.408 -5.664,-5.52 -10.176,-5.52c-7.008,0 -12.24,5.04 -12.24,12.48c0,7.44 5.232,12.48 12.24,12.48Zm-9.312,-12.48c0,-5.712 4.032,-9.888 9.84,-9.888c5.712,0 9.744,4.176 9.744,9.888c0,5.712 -4.032,9.84 -9.744,9.84c-5.808,0 -9.84,-4.176 -9.84,-9.84Z" style="fill:#fefbc2;fill-rule:nonzero;"/><path d="M355.937,49.687l1.056,0c0.624,0 0.96,-0.336 0.96,-1.056l0,-11.856l13.92,0l9.408,12.336c0.288,0.432 0.576,0.624 1.008,0.624l1.296,0c0.72,0 1.152,-0.672 0.576,-1.536l-9.024,-11.856c6.048,-1.008 8.88,-4.992 8.88,-9.984c0,-5.76 -3.744,-10.32 -12.048,-10.32l-15.936,0c-0.624,0 -1.056,0.384 -1.056,1.056l0,31.536c0,0.72 0.336,1.056 0.96,1.056Zm2.016,-15.552l0,-15.456l14.016,0c6,0 9.12,3.072 9.12,7.728c0,4.56 -3.12,7.728 -9.12,7.728l-14.016,0Z" style="fill:#fefbc2;fill-rule:nonzero;"/><path d="M401.825,50.167c4.464,0 7.968,-1.632 10.368,-4.608c0.384,-0.432 0.336,-1.008 -0.096,-1.344l-0.72,-0.528c-0.432,-0.336 -0.912,-0.24 -1.344,0.144c-1.872,2.352 -4.464,3.744 -8.064,3.744c-5.712,0 -9.456,-3.408 -9.792,-8.976l20.304,0c0.48,0 0.816,-0.336 0.816,-0.816l0,-0.384c0,-6.864 -4.32,-12.288 -11.712,-12.288c-7.344,0 -12.336,5.28 -12.336,12.816c0,7.248 4.656,12.24 12.576,12.24Zm-9.6,-13.728c0.528,-5.136 4.032,-8.784 9.456,-8.784c5.376,0 8.4,3.6 8.688,8.784l-18.144,0Z" style="fill:#fefbc2;fill-rule:nonzero;"/><path d="M430.961,50.167c4.992,0 8.736,-2.448 10.896,-6.144c0.288,-0.48 0.144,-0.96 -0.384,-1.248l-0.864,-0.48c-0.528,-0.288 -0.96,-0.048 -1.296,0.432c-1.728,2.784 -4.512,4.752 -8.352,4.752c-5.664,0 -9.6,-4.176 -9.6,-9.84c0,-5.664 3.936,-9.888 9.6,-9.888c3.744,0 6.48,1.872 8.208,4.608c0.384,0.48 0.864,0.672 1.392,0.336l0.816,-0.48c0.48,-0.24 0.672,-0.816 0.288,-1.344c-2.208,-3.456 -5.904,-5.76 -10.704,-5.76c-7.344,0 -12.528,5.28 -12.528,12.528c0,7.2 5.184,12.528 12.528,12.528Z" style="fill:#fefbc2;fill-rule:nonzero;"/><path d="M459.665,50.167c7.44,0 12.768,-5.328 12.768,-12.528c0,-7.248 -5.328,-12.528 -12.768,-12.528c-7.488,0 -12.816,5.28 -12.816,12.528c0,7.2 5.328,12.528 12.816,12.528Zm-9.888,-12.528c0,-5.664 4.08,-9.888 9.888,-9.888c5.76,0 9.84,4.224 9.84,9.888c0,5.664 -4.08,9.84 -9.84,9.84c-5.808,0 -9.888,-4.176 -9.888,-9.84Z" style="fill:#fefbc2;fill-rule:nonzero;"/><path d="M479.729,49.687l1.056,0c0.576,0 0.912,-0.336 0.912,-1.008l0,-11.328c0,-6.864 3.456,-9.504 7.968,-9.504c0.768,0 1.488,0.144 2.016,0.288c0.72,0.144 1.104,-0.24 1.104,-0.864l0,-0.912c0,-0.528 -0.336,-0.864 -0.96,-0.912c-0.576,-0.144 -1.296,-0.288 -2.064,-0.288c-4.224,0 -6.576,1.92 -8.064,4.512l0,-3.072c0,-0.672 -0.336,-1.056 -0.912,-1.056l-1.056,0c-0.576,0 -0.912,0.384 -0.912,1.056l0,22.08c0,0.672 0.336,1.008 0.912,1.008Z" style="fill:#fefbc2;fill-rule:nonzero;"/><path d="M507.473,50.119c4.56,0 8.208,-2.16 10.224,-5.568l-0.048,2.64l0,1.488c0,0.576 0.384,1.008 0.96,1.008l1.008,0c0.576,0 0.912,-0.432 0.912,-1.008l0,-34.08c0,-0.624 -0.336,-1.008 -0.912,-1.008l-1.056,0c-0.576,0 -0.912,0.384 -0.912,1.008l0,16.08c-2.016,-3.408 -5.664,-5.52 -10.176,-5.52c-7.008,0 -12.24,5.04 -12.24,12.48c0,7.44 5.232,12.48 12.24,12.48Zm-9.312,-12.48c0,-5.712 4.032,-9.888 9.84,-9.888c5.712,0 9.744,4.176 9.744,9.888c0,5.712 -4.032,9.84 -9.744,9.84c-5.808,0 -9.84,-4.176 -9.84,-9.84Z" style="fill:#fefbc2;fill-rule:nonzero;"/><path d="M537.809,50.167c6.144,0 9.6,-2.832 9.6,-7.296c0,-3.552 -2.16,-6.144 -7.776,-6.672l-3.648,-0.288c-3.84,-0.336 -5.28,-1.584 -5.28,-3.744c0,-2.784 2.4,-4.656 6.672,-4.656c3.12,0 5.376,1.056 7.056,3.408c0.384,0.384 0.816,0.528 1.296,0.24l0.672,-0.432c0.432,-0.288 0.528,-0.768 0.096,-1.248c-2.112,-3.12 -5.136,-4.368 -9.072,-4.368c-6.144,0 -9.6,2.976 -9.6,7.296c0,3.6 2.352,5.664 7.632,6.192l3.6,0.336c4.128,0.384 5.472,2.112 5.472,4.176c0,2.832 -2.496,4.656 -6.816,4.656c-3.408,0 -5.904,-1.104 -7.92,-3.888c-0.384,-0.384 -0.816,-0.528 -1.296,-0.24l-0.72,0.48c-0.432,0.288 -0.528,0.816 -0.144,1.248c2.448,3.36 5.76,4.8 10.176,4.8Z" style="fill:#fefbc2;fill-rule:nonzero;"/></g></svg>